<svg xmlns="http://www.w3.org/2000/svg" xmlns:xlink="http://www.w3.org/1999/xlink" width="37" height="37" viewBox="0 0 37 37"><defs><path id="m85za" d="M432.847 879.529a.902.902 0 0 1-.536 1.154l-26.49 9.704a.867.867 0 0 1-.612-.003.923.923 0 0 1-.311.058h-7.802a.9.9 0 0 1-.899-.9v-34.2c0-.495.404-.9.899-.9h7.802c.495 0 .899.405.899.9v9.35l3.703-8.782a.897.897 0 0 1 1.178-.478l6.873 2.895a.903.903 0 0 1 .477 1.18l-3.747 8.892 6.683-6.68a.902.902 0 0 1 1.275 0l5.27 5.277a.9.9 0 0 1 0 1.272l-6.814 6.81 8.431-3.087a.896.896 0 0 1 1.154.536zm-28.852 9.115V856.24h-6v32.403zm6.812-31.204l-5.01 11.888v14.564l.715-1.7.958-2.267 1.582-3.756.926-2.197.928-2.198 5.116-12.137zm-4.207 29.179l7.046-7.04 3.029-3.027 8.927-8.92-4.002-4.002-9.173 9.167-2.649 6.28-.954 2.269zm24.246-7.316l-1.946-5.314-11.234 4.117-9.519 9.512z"/><path id="m85zb" d="M400.995 884.943c-.038 0-.076.006-.114.01a1.31 1.31 0 0 0-.85.423 1.327 1.327 0 0 0-.333.864c0 .288.093.55.25.763.235.325.617.54 1.047.54.064 0 .123-.01.186-.019a1.286 1.286 0 0 0 1.104-1.166c.002-.04.011-.076.011-.118 0-.717-.58-1.297-1.3-1.297z"/></defs><g><g transform="translate(-396 -854)"><use xlink:href="#m85za"/></g><g transform="translate(-396 -854)"><use xlink:href="#m85zb"/></g></g></svg>