<svg xmlns="http://www.w3.org/2000/svg" xmlns:xlink="http://www.w3.org/1999/xlink" width="24" height="20" viewBox="0 0 24 20"><defs><path id="peqca" d="M1101.685 1205h18.627c1.001 0 1.816.815 1.816 1.816v10.89a1.819 1.819 0 0 1-1.816 1.817h-1.06v4.48a.517.517 0 0 1-.884.367l-4.848-4.847h-11.835a1.818 1.818 0 0 1-1.815-1.816v-10.891c0-1.001.814-1.816 1.815-1.816zm-.78 12.707c0 .43.351.78.78.78h12.05a.519.519 0 0 1 .351.137l.018.018 4.112 4.112v-3.75l.002-.047a.52.52 0 0 1 .516-.47h1.578a.78.78 0 0 0 .78-.78v-10.891a.781.781 0 0 0-.78-.781h-18.627a.783.783 0 0 0-.78.78z"/><path id="peqcb" d="M1117.582 1211.045h-8.397a.518.518 0 0 1 0-1.035h8.397a.519.519 0 0 1 0 1.035z"/><path id="peqcc" d="M1104.417 1210.01h1.874a.519.519 0 0 1 0 1.035h-1.874a.518.518 0 1 1 0-1.035z"/><path id="peqcd" d="M1112.895 1212.973h4.687a.518.518 0 0 1 0 1.035h-4.688a.518.518 0 1 1 0-1.035z"/><path id="peqce" d="M1104.417 1212.973h5.728a.518.518 0 0 1 0 1.035h-5.728a.518.518 0 1 1 0-1.035z"/></defs><g><g transform="translate(-1099 -1205)"><use xlink:href="#peqca"/></g><g transform="translate(-1099 -1205)"><use xlink:href="#peqcb"/></g><g transform="translate(-1099 -1205)"><use xlink:href="#peqcc"/></g><g transform="translate(-1099 -1205)"><use xlink:href="#peqcd"/></g><g transform="translate(-1099 -1205)"><use xlink:href="#peqce"/></g></g></svg>