<svg xmlns="http://www.w3.org/2000/svg" xmlns:xlink="http://www.w3.org/1999/xlink" width="27" height="24" viewBox="0 0 27 24"><defs><path id="9fzoa" d="M198.12 65.057a1.335 1.335 0 0 0 .943 2.276c.342 0 .682-.13.943-.39l4-4c.031-.03.06-.064.088-.098.013-.015.023-.03.034-.046.015-.019.031-.038.044-.059a.78.78 0 0 0 .034-.057.616.616 0 0 0 .033-.055l.03-.059.026-.059c.008-.019.014-.039.021-.059l.023-.064.015-.06c.006-.022.012-.044.016-.067.005-.023.008-.046.011-.069l.01-.06.006-.129v-.004a1.92 1.92 0 0 0-.007-.13l-.009-.058a.871.871 0 0 0-.01-.07c-.005-.023-.01-.044-.017-.067l-.015-.06-.022-.063-.022-.06c-.008-.02-.018-.039-.027-.058a1.684 1.684 0 0 0-.029-.06c-.01-.019-.02-.036-.032-.054a.687.687 0 0 0-.035-.058c-.013-.02-.028-.038-.04-.057l-.038-.048a1.236 1.236 0 0 0-.084-.093c0-.002-.003-.003-.004-.005l-4-4a1.334 1.334 0 0 0-1.886 1.886l1.724 1.724h-12.78a1.333 1.333 0 0 0 0 2.667h12.78z"/><path id="9fzob" d="M210.174 50h-16.889c-.736 0-1.333.597-1.333 1.333v5.334a1.333 1.333 0 0 0 2.667 0v-4h14.222v18.666H194.62v-4a1.333 1.333 0 0 0-2.667 0v5.334c0 .736.597 1.333 1.333 1.333h16.89c.736 0 1.332-.597 1.332-1.333V51.333c0-.736-.596-1.333-1.333-1.333z"/></defs><g><g transform="translate(-185 -50)"><use fill="#005ca8" xlink:href="#9fzoa"/></g><g transform="translate(-185 -50)"><use fill="#005ca8" xlink:href="#9fzob"/></g></g></svg>