<svg xmlns="http://www.w3.org/2000/svg" xmlns:xlink="http://www.w3.org/1999/xlink" width="21" height="21" viewBox="0 0 21 21"><defs><path id="anpqa" d="M106.205 1257.97h-9.41a5.802 5.802 0 0 0-5.795 5.795v9.41c0 3.195 2.6 5.794 5.796 5.794h9.409c3.196 0 5.795-2.6 5.795-5.795v-9.409a5.802 5.802 0 0 0-5.795-5.796zm3.932 15.204a3.937 3.937 0 0 1-3.932 3.932h-9.41a3.936 3.936 0 0 1-3.931-3.932v-9.409a3.936 3.936 0 0 1 3.932-3.933h9.409a3.937 3.937 0 0 1 3.932 3.933z"/><path id="anpqb" d="M101.5 1263.059a5.417 5.417 0 0 0-5.412 5.41 5.418 5.418 0 0 0 5.412 5.412 5.418 5.418 0 0 0 5.412-5.412 5.418 5.418 0 0 0-5.412-5.41zm0 8.958a3.552 3.552 0 0 1-3.548-3.548 3.552 3.552 0 0 1 3.548-3.548 3.552 3.552 0 0 1 3.548 3.548 3.552 3.552 0 0 1-3.548 3.548z"/><path id="anpqc" d="M107.138 1261.479a1.37 1.37 0 0 0-1.366 1.367c0 .358.146.71.401.966.253.253.606.399.965.399.36 0 .711-.146.966-.4s.4-.607.4-.965a1.37 1.37 0 0 0-.4-.967 1.371 1.371 0 0 0-.966-.4z"/></defs><g><g transform="translate(-91 -1258)"><use fill="#fff" xlink:href="#anpqa"/></g><g transform="translate(-91 -1258)"><use fill="#fff" xlink:href="#anpqb"/></g><g transform="translate(-91 -1258)"><use fill="#fff" xlink:href="#anpqc"/></g></g></svg>