<svg xmlns="http://www.w3.org/2000/svg" xmlns:xlink="http://www.w3.org/1999/xlink" width="160" height="56" viewBox="0 0 160 56"><defs><path id="lu41a" d="M967.87 404.38v-14.03h44.98v14.03z"/><path id="lu41b" d="M976.55 419.06v-15.61h27.62v15.61z"/><path id="lu41c" d="M1011.254 375.669c.485.194.914.48 1.29.858.368.36.655.78.853 1.258.2.478.297.98.297 1.51 0 .538-.097 1.036-.29 1.505a3.658 3.658 0 0 1-.86 1.246c-.39.376-.831.67-1.321.869a4.01 4.01 0 0 1-1.532.304c-.534 0-1.04-.103-1.524-.297a3.946 3.946 0 0 1-1.292-.87 3.807 3.807 0 0 1-.873-1.265 3.845 3.845 0 0 1 .009-2.989c.207-.477.5-.91.889-1.293a3.777 3.777 0 0 1 1.267-.84 4.005 4.005 0 0 1 1.524-.29c.556 0 1.077.1 1.563.294zm1.742 2.294a3.346 3.346 0 0 0-.751-1.125 3.68 3.68 0 0 0-1.165-.761 3.735 3.735 0 0 0-1.39-.265c-.471 0-.918.084-1.341.255a3.505 3.505 0 0 0-1.14.753c-.343.34-.61.73-.793 1.154-.184.426-.276.87-.276 1.33 0 .459.09.898.27 1.318.18.418.44.794.777 1.132.342.329.726.586 1.157.764.43.17.88.263 1.347.263.473 0 .93-.092 1.373-.268a3.678 3.678 0 0 0 1.18-.772c.33-.316.584-.68.753-1.091.173-.41.262-.858.262-1.338 0-.474-.09-.924-.263-1.35zm-3.182-.987c.647 0 1.126.1 1.436.303.31.203.467.517.467.944 0 .319-.1.582-.294.796-.198.212-.461.343-.794.392l1.027 2.075h-.79l-.968-1.982h-1.075v1.982h-.694v-4.51zm-.991.457v1.623h.859c.488 0 .827-.06 1.024-.182.199-.116.298-.317.298-.604 0-.296-.105-.51-.313-.641-.207-.131-.542-.196-1.01-.196z"/><path id="lu41d" d="M990.227 405.129c6.296 0 11.719 2.769 11.719 5.787 0 2.996-5.622 5.766-11.917 5.766-6.298 0-11.502-2.77-11.502-5.766 0-3.018 5.423-5.787 11.7-5.787zm-2.667 8.934c.447-.431.61-1.165.577-1.837a1.65 1.65 0 0 0-.466-1.064c-.457-.551-1.678-.786-1.993-.857-1.467-.301-1.622-.965-1.647-1.235-.033-.375.125-1.208 1.55-1.208 1.333 0 1.475 1.172 1.52 1.534h.844c0-2-1.508-2.325-2.254-2.37-1.038-.061-2.527.61-2.527 1.904 0 .41 0 1.115.526 1.587.456.414 1.877.81 1.976.838 1.278.306 1.593.776 1.593 1.308 0 .98-1.205 1.259-1.736 1.259-1.483 0-1.66-1.346-1.675-1.757h-.857c.012.606.13 1.377.595 1.877.42.455 1.142.743 1.88.743.797 0 1.505-.155 2.094-.722zm3.869-7.037h-.603l-2.334 8.517h.624zm5.12.2h-4.476v7.34h.888v-3.317h3.139v-.886h-3.14v-2.248h3.589z"/><path id="lu41e" d="M1001.748 394.776c-.012-.312-.387-.761-.914-.927-.567-.163-1.17-.144-1.17-.144l.106 2.652s.462-.045.987-.271c.59-.248 1.01-.742.991-1.31z"/><path id="lu41f" d="M1020.414 396.668c-.18 4.699-1.918 9.635-11.56 11.9 5.354 4.995 5.632 11.69.733 17.287-2.905-3.003-5.59-2.422-7.192-.72-1.026 1.084-1.304 2.655-1.203 3.875-4.21.195-7.883-2.46-10.985-7.492-2.312 4.026-5.274 7.415-10.807 7.743.474-6.119-5.334-7.78-8.631-3.33-3.121-2.943-6.52-10.16.809-17.248-4.382-.483-11.141-3.018-11.578-11.905 4.8 2.191 9.957-4.859 3.836-8.069 7.53-6.376 14.704-1.3 15.112-.548-1.455-3.786-.468-11.02 6.736-14.049-.178 1.532 2.194 4.512 5.135 3.911 2.53-.427 3.319-1.78 3.953-3.87 4.286 2.633 7.862 6.115 6.496 13.841 6.442-4.8 12.25-2.19 15.273.485-6.044 3.557-1.541 10.413 3.873 8.188zm-29.43-4.223c-.17.474-.06 5.181-.034 6.763.018.804 0 1.948.946 2.338.9.37 1.72.12 1.956-.023.397-.245 1.09-.448 1.267-.28.325.31.489.443.857.422.463-.025.723-.205.723-.676 0-.8.054-3.13.066-5.296.008-1.848.005-3.593-.323-3.953-.161-.18-1.007-.157-1.007-.157s-.782.667-.794.99c-.011.288.226.453.223.499a786.3 786.3 0 0 0-.035 5.27c0 .1.014 1.11-.901 1.136-.967.024-.99-.81-.99-.81s-.036-4.4.023-5.14c.018-.218.358-.457.478-.902.08-.296.024-1.089-1.08-1.035-1.165.063-1.375.854-1.375.854zm-6.9-.822c-1.143.688-1.066 1.46-1.066 1.46.925 2.798 1.153 7.873 1.07 8.163-.085.141-.165.44.088.44.17.017.333 0 .4-.202.08-.22.778-1.818.938-4.113.147-2.16 1.11 2.551 1.742 3.54.633.968 1.745.823 2.193.743.395-.069.833-.579.778-1.034-.035-.265-.377-.66-.79-1.02-.411-.358-.896-.673-1.148-1.024-.297-.423-1.852-2.313-1.678-2.514.209-.239 2.024-1.055 2.803-2.19.413-.598.377-1.445.055-1.8-.391-.431-.686-.598-1.024-.431-.316.16-.73 1.232-1.21 2.032-.798 1.382-1.644 2.487-1.553 1.72.24-2.064-.571-4.375-1.597-3.77zm-8.894 8.274c.355-.697.266-1.718-.058-2.384-.377-.785-1.65-1.939-2.302-2.662-.65-.739-.607-1.372-.432-1.555a.514.514 0 0 1 .543-.145c.4.15.679.762.892 1.13.189.352 1.052.294 1.299-.096.118-.184.183-.568.066-.857-.297-.6-1.44-1.713-2.201-1.737-1.533-.046-2.44.926-2.634 1.382a2.433 2.433 0 0 0 .28 2.312c.69.965 2.467 2.733 2.544 4.012.015.244-.032.336-.147.426-.214.17-.548.148-.675.12-.583-.132-1.09-.843-1.403-1.437-.11-.202-.333-.688-.533-.9-.183-.195-.676-.252-1.036-.097-.393.17-.567.524-.6.725-.344 2.166 2.868 3.5 3.84 3.497.407-.005.875-.158 1.3-.427.563-.37 1.054-.92 1.257-1.306zm.95-.245c.043 1.09.62 1.869 1.207 1.97.124 0 .856.246 1.055-.52.166-.544-.086-1.671-.067-1.693h1.282c.692 0 1.427-.02 1.427 0 .019.044.22.984.474 1.7.167.438.332.759.512.703.836-.265.799-4.912.799-4.912 0-2.226-1.191-4.077-2.055-4.863-.383-.342-.736-.488-.836-.488-1.313 0-1.525.746-1.512.948.026.47.456.586.456.586-.08.47-1.071 2.039-2.092 3.88-.466.843-.628 1.93-.65 2.382zm13.928 17.832c6.949 0 12.748-3.038 12.748-6.606 0-3.553-5.662-6.493-12.63-6.493-6.946 0-12.59 2.94-12.59 6.493 0 3.568 5.508 6.606 12.472 6.606zm13.492-15.818c.208-.011.812-.153.812-.911 0-1.748-3.18-3.47-2.901-3.69.26-.212 2.534-1.313 2.5-3.003.043-1.545-1.313-2.225-2.458-2.402a16.477 16.477 0 0 0-1.397-.09c-.782-.021-1.435.113-1.608.146-.476.102-.827.328-.842.592-.02.302.21.562.358.709 0 0 .2.413.21 1.079-.127 2.9-.095 2.77-.217 4.915-.056.984.05 1.79.26 2.098.25.373.66.457 1.113.522.779.024.937-.996.79-1.676-.146-.678-.383-.845-.424-2.08 0-.471.329-.134.624.156.04.044.324.424.413.52.355.496.602 1.075.777 1.506.093.235.414.76.645.987.368.392 1.045.622 1.299.622l.065.004zm7.288.146c.833-.265.799-4.912.799-4.912 0-2.226-1.193-4.077-2.06-4.863-.382-.342-.732-.488-.834-.488-1.311 0-1.523.746-1.511.948.025.47.455.586.455.586-.078.47-1.075 2.039-2.09 3.88-.466.843-.631 1.93-.65 2.382v.307c.042 1.09.618 1.869 1.207 1.97.125 0 .857.246 1.054-.52.165-.544-.088-1.671-.068-1.693h1.284c.692 0 1.424-.02 1.424 0 .02.044.222.984.473 1.7.17.438.336.759.517.703z"/><path id="lu41g" d="M980.674 398.089c-.353-1.203-.742-2.092-1.08-2.36-.211-.166-.357-.11-.357-.11-.234.01-.417.657-.587 1.29-.14.508-.293 1.008-.305 1.18h1.2z"/><path id="lu41h" d="M1008.054 395.619c-.234.01-.418.657-.59 1.292-.14.506-.293 1.005-.301 1.178h2.327c-.354-1.203-.746-2.091-1.081-2.361-.21-.165-.355-.11-.355-.11z"/><path id="lu41i" d="M1113.584 383.22l.06.007c.9 0 1.998.268 2.975.818 1.82 1.018 3.345 2.911 3.345 5.287l.036 23.685h-2.906l-.02-9.66h-7.01l.016 9.66h-2.908l.037-23.685c0-2.376 1.53-4.269 3.342-5.287.977-.55 2.077-.818 2.981-.818zm3.49 16.643s.03-4.264.03-4.468c0-.056.168-3.85-3.52-3.85-3.686 0-3.52 3.794-3.52 3.85 0 .204.033 4.468.033 4.468h3.487z"/><path id="lu41j" d="M1038.626 383.228c2.396.057 4.306.907 5.302 2.323.717 1.003.873 2.163.893 2.892.012.403.021 5.905.021 5.905s-2.911.015-2.911 0c0 .015.454-4.928-3.159-4.91-2.038.01-2.965 1.08-3.104 2.075-.258 1.868 1.066 2.728 2.848 4.247 2.852 2.435 7.012 4.378 7.012 8.92 0 2.107.059 3.677-.508 4.847-1.809 3.726-6.067 3.382-6.415 3.382-4.14 0-6.322-3.417-6.322-7.793 0-1.618.031-4.793.031-4.793h2.798c.007.722-.993 4.922 1.788 5.793 2.101.654 3.917-.01 4.758-1.07.689-.87.583-2.343.125-2.91-2.731-3.39-8.211-5.688-9.191-8.88-.179-.579-.269-1.788-.273-3.088-.006-1.614.164-3.406 1.055-4.796.978-1.529 3.183-2.185 5.252-2.145z"/><path id="lu41k" d="M1053.902 383.22l.058.007c.9 0 2.002.268 2.978.818 1.815 1.018 3.343 2.911 3.343 5.287l.037 23.685h-2.906l.054-9.66H1050.342l.055 9.66h-2.91l.039-23.685c0-2.376 1.53-4.269 3.343-5.287.976-.55 2.077-.818 2.98-.818zm3.49 16.643s.03-4.264.03-4.468c0-.056.169-3.85-3.52-3.85-3.687 0-3.517 3.794-3.517 3.85 0 .204.029 4.468.029 4.468h3.488z"/><path id="lu41l" d="M1065.403 388.117c.174-.254 1.817-3.165 4.72-4.319 1.224-.49 2.72-.512 4.566-.512v8.26c-.328.075-9.393.04-9.393 6.257 0 3.073 1.616 4.062 3.506 4.9 2.273.994 5.905 1.084 5.905 1.084v9.046c-.403.055-6.974-.327-9.304-5.254v5.354h-2.916l.051-29.7h2.85z"/><path id="lu41m" d="M1077.614 383.264h3.161l.033 17.07c0 2.694 1.33 3.528 3.138 3.528h.898c1.806 0 3.134-.834 3.134-3.527l.038-17.071h3.161l.07 20.815s.255 3.866-1.508 6.484c-.949 1.413-2.542 2.302-4.932 2.405-.095.01-.19.01-.29.01h-.247c-.095 0-.196 0-.288-.005-2.39-.108-3.984-.997-4.93-2.41-1.76-2.618-1.51-6.484-1.51-6.484z"/><path id="lu41n" d="M1100.45 383.336c2.017.012 3.336.518 4.07 1.33.877.967.965 2.319.965 3.219l-.038 7.767c0 2.033-1.238 2.677-1.964 2.959.721.57 1.491 1.474 1.857 2.543.207.675.214 1.478.214 2.483l-.036 9.28h-3.05c-.017 0 .105-6.036 0-9.016 0-3.924-2.753-3.71-3.294-3.71-.939-.015-2.382 0-3.23.006v12.78h-2.306l-.762-.004v-29.63s7.034-.026 7.573-.007zm2.364 11.102v-.292c-.01-.41-.04-.72-.136-1.023-.496-1.477-1.79-1.586-2.63-1.586h-4.105v5.711h4.105c.84 0 2.134-.11 2.63-1.584.115-.348.134-.718.136-1.226z"/><path id="lu41o" d="M1032.736 423.26v-3.925c0-.156.043-.285.143-.394a.517.517 0 0 1 .398-.156h1.771c.148 0 .261.048.341.142a.506.506 0 0 1 .123.342c0 .134-.04.246-.123.336a.424.424 0 0 1-.34.143h-1.276v1.021h1.078a.47.47 0 0 1 .5.48.58.58 0 0 1-.059.238.465.465 0 0 1-.44.251h-1.079v1.521c0 .18-.048.313-.14.408a.521.521 0 0 1-.38.14.52.52 0 0 1-.374-.14c-.1-.1-.143-.238-.143-.408z"/><path id="lu41p" d="M1038.09 418.485a.582.582 0 0 1 .483.286.505.505 0 0 1 .082.27.594.594 0 0 1-.166.413.527.527 0 0 1-.79-.005.582.582 0 0 1-.168-.408c0-.142.056-.27.169-.383a.546.546 0 0 1 .39-.173zm-.495 4.767v-2.688a.6.6 0 0 1 .134-.411.482.482 0 0 1 .36-.146c.097 0 .18.018.258.071a.43.43 0 0 1 .176.193.573.573 0 0 1 .07.293v2.688a.585.585 0 0 1-.07.288.44.44 0 0 1-.176.199.497.497 0 0 1-.257.069.453.453 0 0 1-.361-.153.592.592 0 0 1-.134-.403z"/><path id="lu41q" d="M1040.956 423.252v-4.317c0-.164.045-.3.138-.404a.472.472 0 0 1 .358-.156c.097 0 .185.026.258.074a.448.448 0 0 1 .18.2.625.625 0 0 1 .064.286v4.317c0 .103-.02.199-.065.288a.445.445 0 0 1-.179.199.498.498 0 0 1-.258.069.446.446 0 0 1-.358-.153.575.575 0 0 1-.138-.403z"/><path id="lu41r" d="M1044.576 423.252v-2.327h-.222a.448.448 0 0 1-.32-.113.447.447 0 0 1-.118-.33c0-.122.04-.228.128-.313a.41.41 0 0 1 .31-.122h.222v-.603c0-.172.043-.305.137-.408a.459.459 0 0 1 .36-.153c.097 0 .184.024.262.068.072.05.137.115.177.199.04.082.063.183.063.294v.603h.281c.143 0 .253.034.344.104.094.077.137.183.137.331 0 .15-.043.264-.135.338a.54.54 0 0 1-.346.105h-.28v2.327a.642.642 0 0 1-.068.288.438.438 0 0 1-.178.199.484.484 0 0 1-.257.069.452.452 0 0 1-.36-.153.57.57 0 0 1-.137-.403z"/><path id="lu41s" d="M1051.14 422.242h-2.128c.031.245.136.425.31.544.175.122.384.18.632.18.151 0 .274-.02.37-.063.096-.04.226-.108.395-.201.172-.092.293-.136.364-.136a.35.35 0 0 1 .197.064.433.433 0 0 1 .213.374c0 .136-.082.272-.248.404a2.066 2.066 0 0 1-.638.326 2.736 2.736 0 0 1-.746.12c-.274 0-.524-.048-.756-.142a1.796 1.796 0 0 1-.596-.41 1.819 1.819 0 0 1-.386-.624 2.177 2.177 0 0 1-.134-.765 2.066 2.066 0 0 1 .507-1.355c.155-.183.344-.326.568-.437.225-.103.466-.16.716-.16.262 0 .505.057.728.165.223.11.413.253.57.432.157.177.28.376.368.589.082.219.127.432.127.649 0 .299-.147.446-.434.446zm-2.152-.67h1.586a.934.934 0 0 0-.127-.394.682.682 0 0 0-.272-.276.768.768 0 0 0-.395-.096.738.738 0 0 0-.388.105.779.779 0 0 0-.272.272.956.956 0 0 0-.132.389z"/><path id="lu41t" d="M1053.736 423.252v-2.749c0-.154.053-.275.158-.366a.516.516 0 0 1 .357-.13c.326 0 .487.14.487.411h.013a1.06 1.06 0 0 1 .31-.311.69.69 0 0 1 .393-.1c.124 0 .24.046.335.14.096.088.146.223.146.393 0 .102-.025.174-.076.23a.612.612 0 0 1-.207.137c-.088.034-.192.077-.312.121-.2.094-.348.183-.45.271a.535.535 0 0 0-.152.404v1.549a.642.642 0 0 1-.067.288.455.455 0 0 1-.178.199.493.493 0 0 1-.258.069.458.458 0 0 1-.362-.153.599.599 0 0 1-.137-.403z"/><path id="lu41u" d="M1060.39 420.69c0 .116-.037.22-.113.31a.366.366 0 0 1-.29.138c-.051 0-.15-.035-.297-.099-.146-.066-.256-.114-.333-.15a.773.773 0 0 0-.268-.044.413.413 0 0 0-.24.068.24.24 0 0 0-.1.208c0 .101.1.194.3.28.198.086.408.178.628.271.222.084.41.214.57.365.158.156.235.371.235.628 0 .221-.061.425-.177.61a1.227 1.227 0 0 1-.501.424 1.67 1.67 0 0 1-.741.156c-.195 0-.404-.037-.62-.106a1.536 1.536 0 0 1-.55-.28c-.148-.122-.226-.254-.226-.397a.4.4 0 0 1 .054-.19.567.567 0 0 1 .152-.183.38.38 0 0 1 .225-.08.56.56 0 0 1 .237.046c.068.03.153.07.257.13.104.06.194.103.276.131a.846.846 0 0 0 .264.04c.148 0 .25-.019.307-.068.058-.044.087-.12.087-.225 0-.094-.1-.183-.296-.265-.194-.086-.407-.175-.634-.27a1.737 1.737 0 0 1-.57-.382c-.157-.156-.234-.36-.234-.622 0-.228.057-.43.174-.61.113-.176.276-.314.48-.414.206-.097.44-.148.7-.148.186 0 .37.032.564.084.189.056.35.136.482.248a.508.508 0 0 1 .199.396z"/><path id="lu41v" d="M1069.529 421.839l.27-.318c.105-.121.19-.204.262-.25a.464.464 0 0 1 .266-.076c.104 0 .193.04.27.126a.459.459 0 0 1 .11.317c0 .156-.126.376-.38.665l-.173.187.47.542c.05.059.09.12.116.165.029.044.036.108.036.182 0 .129-.05.236-.144.333a.47.47 0 0 1-.34.143.473.473 0 0 1-.365-.164l-.482-.507a2.866 2.866 0 0 1-.733.502 1.82 1.82 0 0 1-.793.169c-.313 0-.597-.058-.858-.176a1.426 1.426 0 0 1-.842-1.336c0-.33.1-.626.294-.883.194-.253.449-.465.752-.635a2.013 2.013 0 0 1-.338-.455 1.066 1.066 0 0 1-.117-.495c0-.247.069-.466.209-.646a1.25 1.25 0 0 1 .546-.396 1.91 1.91 0 0 1 1.368-.004c.215.083.395.207.533.37a.881.881 0 0 1 .215.594c0 .18-.04.35-.124.506a1.486 1.486 0 0 1-.314.413 2.102 2.102 0 0 1-.444.312zm-1.714-.44a1.776 1.776 0 0 0-.438.369.724.724 0 0 0-.157.47c0 .21.066.39.2.504a.75.75 0 0 0 .52.186c.18 0 .34-.036.469-.102.134-.068.27-.171.41-.312zm.764-1.802a.54.54 0 0 0-.314-.097.447.447 0 0 0-.282.103.286.286 0 0 0-.133.246.53.53 0 0 0 .077.277c.056.08.15.189.292.32.335-.17.505-.348.505-.542 0-.143-.05-.245-.145-.307z"/><path id="lu41w" d="M1076.752 423.26v-3.927c0-.173.045-.31.134-.4.094-.1.228-.148.398-.148h1.22c.553 0 .978.127 1.278.391.3.256.45.654.45 1.186 0 .368-.121.666-.36.897-.243.225-.549.368-.924.434l1.184 1.271a.452.452 0 0 1 .133.304.547.547 0 0 1-.149.378.476.476 0 0 1-.37.161.486.486 0 0 1-.399-.177l-1.54-1.89h-.014v1.52c0 .18-.052.314-.143.407a.52.52 0 0 1-.378.14.528.528 0 0 1-.377-.14.572.572 0 0 1-.143-.408zm1.041-3.512v1.238h.711a.772.772 0 0 0 .343-.073.542.542 0 0 0 .225-.215.721.721 0 0 0 .08-.336.586.586 0 0 0-.178-.453.688.688 0 0 0-.47-.16z"/><path id="lu41x" d="M1085.815 420.662v2.492c0 .194-.03.354-.08.473-.055.117-.187.18-.401.18-.135 0-.24-.03-.31-.103a.662.662 0 0 1-.167-.325 1.407 1.407 0 0 1-.43.356c-.152.072-.33.12-.522.12-.31 0-.587-.087-.838-.249a1.68 1.68 0 0 1-.595-.693 2.3 2.3 0 0 1-.214-1c0-.365.07-.69.22-.988.15-.296.35-.534.6-.703a1.49 1.49 0 0 1 .827-.26c.188 0 .37.04.536.12.166.071.305.19.416.336a.445.445 0 0 1 .158-.297.487.487 0 0 1 .319-.114c.214 0 .346.058.4.181.05.116.08.275.08.474zm-2.557 1.25c0 .168.028.33.089.485.06.156.149.281.265.381a.646.646 0 0 0 .434.148.62.62 0 0 0 .422-.148.939.939 0 0 0 .262-.38 1.45 1.45 0 0 0 .087-.486c0-.267-.071-.507-.204-.717a.632.632 0 0 0-.567-.31.666.666 0 0 0-.434.146.912.912 0 0 0-.27.39c-.056.158-.084.32-.084.491z"/><path id="lu41y" d="M1091.617 418.935v4.316a.67.67 0 0 1-.063.29.463.463 0 0 1-.439.266c-.266 0-.432-.14-.494-.423a.939.939 0 0 1-.393.351 1.32 1.32 0 0 1-.529.12c-.314 0-.6-.092-.854-.275a1.784 1.784 0 0 1-.584-.71 2.23 2.23 0 0 1-.202-.919c0-.337.062-.66.185-.965.121-.3.3-.549.548-.736a1.41 1.41 0 0 1 .877-.288c.371 0 .685.12.952.35v-1.377a.57.57 0 0 1 .137-.4.459.459 0 0 1 .357-.16.482.482 0 0 1 .44.274.664.664 0 0 1 .062.286zm-.996 2.941c0-.174-.03-.332-.089-.48a.81.81 0 0 0-.263-.368.688.688 0 0 0-.434-.143.64.64 0 0 0-.572.318 1.277 1.277 0 0 0-.205.71c0 .256.07.495.205.701.14.21.33.312.572.312a.669.669 0 0 0 .434-.153.914.914 0 0 0 .263-.4c.058-.159.09-.328.09-.497z"/><path id="lu41z" d="M1094.491 418.485c.095 0 .188.026.277.077.086.051.16.122.207.209a.505.505 0 0 1 .082.27.577.577 0 0 1-.166.413.55.55 0 0 1-.4.174.539.539 0 0 1-.39-.179.586.586 0 0 1-.168-.408c0-.142.057-.27.171-.383a.545.545 0 0 1 .387-.173zm-.494 4.767v-2.688c0-.173.045-.31.138-.411a.47.47 0 0 1 .356-.146c.1 0 .181.018.26.071a.474.474 0 0 1 .18.193.639.639 0 0 1 .065.293v2.688a.654.654 0 0 1-.066.288.485.485 0 0 1-.18.199.499.499 0 0 1-.259.069.441.441 0 0 1-.356-.153.575.575 0 0 1-.138-.403z"/><path id="lu41A" d="M1100.783 420.662v2.492c0 .194-.03.354-.08.473-.052.117-.187.18-.4.18-.134 0-.237-.03-.311-.103a.678.678 0 0 1-.165-.325 1.461 1.461 0 0 1-.428.356c-.161.072-.332.12-.526.12-.31 0-.59-.087-.84-.249a1.66 1.66 0 0 1-.588-.693 2.26 2.26 0 0 1-.215-1c0-.365.072-.69.223-.988a1.75 1.75 0 0 1 .599-.703c.25-.169.528-.26.82-.26.19 0 .366.04.535.12.17.071.314.19.42.336a.448.448 0 0 1 .157-.297.492.492 0 0 1 .32-.114c.212 0 .347.058.399.181.05.116.08.275.08.474zm-2.556 1.25c0 .168.027.33.088.485a.94.94 0 0 0 .267.381.644.644 0 0 0 .43.148.648.648 0 0 0 .428-.148.997.997 0 0 0 .26-.38c.059-.157.085-.318.085-.486a1.29 1.29 0 0 0-.2-.717.637.637 0 0 0-.572-.31.673.673 0 0 0-.433.146.922.922 0 0 0-.265.39c-.061.158-.088.32-.088.491z"/><path id="lu41B" d="M1103.417 423.252v-2.327h-.223a.453.453 0 0 1-.319-.113.473.473 0 0 1-.117-.33.429.429 0 0 1 .436-.435h.223v-.603c0-.172.049-.305.138-.408a.457.457 0 0 1 .359-.153c.099 0 .188.024.263.068.077.05.135.115.177.199a.646.646 0 0 1 .061.294v.603h.288c.138 0 .253.034.343.104.09.077.134.183.134.331 0 .15-.044.264-.134.338a.544.544 0 0 1-.343.105h-.288v2.327a.639.639 0 0 1-.063.288.45.45 0 0 1-.178.199.5.5 0 0 1-.26.069.45.45 0 0 1-.359-.153.594.594 0 0 1-.138-.403z"/><path id="lu41C" d="M1108.69 419.962a1.73 1.73 0 0 1 1.296.596c.16.182.281.383.368.62a2.184 2.184 0 0 1 0 1.477 1.846 1.846 0 0 1-.363.62 1.721 1.721 0 0 1-1.301.58c-.347 0-.656-.092-.928-.265a1.769 1.769 0 0 1-.63-.704 2.116 2.116 0 0 1-.228-.974c0-.253.045-.492.13-.73.083-.232.21-.442.367-.624.16-.184.351-.327.574-.437a1.67 1.67 0 0 1 .715-.159zm0 .923a.654.654 0 0 0-.43.146.883.883 0 0 0-.268.39 1.392 1.392 0 0 0 0 .975.88.88 0 0 0 .267.382.64.64 0 0 0 .431.148.651.651 0 0 0 .44-.148.925.925 0 0 0 .263-.382 1.368 1.368 0 0 0 0-.976.892.892 0 0 0-.263-.38.631.631 0 0 0-.44-.155z"/><path id="lu41D" d="M1112.717 423.252v-2.749a.47.47 0 0 1 .152-.366.525.525 0 0 1 .359-.13c.32 0 .487.14.487.411h.01c.103-.142.207-.252.315-.311.105-.07.23-.1.386-.1.129 0 .243.046.34.14.097.088.145.223.145.393 0 .102-.022.174-.074.23a.598.598 0 0 1-.21.137c-.088.034-.193.077-.311.121a2.11 2.11 0 0 0-.451.271c-.103.097-.15.23-.15.404v1.549a.64.64 0 0 1-.065.288.495.495 0 0 1-.178.199.502.502 0 0 1-.26.069.45.45 0 0 1-.358-.153.58.58 0 0 1-.137-.403z"/><path id="lu41E" d="M1119.366 420.69c0 .116-.04.22-.117.31a.356.356 0 0 1-.289.138c-.05 0-.147-.035-.297-.099-.14-.066-.256-.114-.336-.15a.744.744 0 0 0-.265-.044.426.426 0 0 0-.239.068c-.064.044-.096.115-.096.208 0 .101.096.194.298.28l.626.271c.223.084.41.214.574.365.16.156.235.371.235.628 0 .221-.057.425-.177.61-.118.176-.29.321-.502.424-.22.106-.466.156-.743.156a2.06 2.06 0 0 1-.62-.106 1.528 1.528 0 0 1-.55-.28c-.148-.122-.226-.254-.226-.397 0-.058.017-.12.052-.19a.538.538 0 0 1 .154-.183.393.393 0 0 1 .226-.08.55.55 0 0 1 .236.046c.066.03.153.07.258.13.103.06.194.103.275.131.082.026.17.04.267.04.145 0 .248-.019.305-.068.057-.044.086-.12.086-.225 0-.094-.096-.183-.29-.265-.198-.086-.413-.175-.638-.27a1.844 1.844 0 0 1-.574-.382c-.155-.156-.23-.36-.23-.622 0-.228.056-.43.172-.61.113-.176.276-.314.48-.414a1.62 1.62 0 0 1 .7-.148c.185 0 .373.032.563.084.19.056.35.136.481.248a.507.507 0 0 1 .201.396z"/></defs><g><g transform="translate(-960 -374)"><use fill="#fff" xlink:href="#lu41a"/></g><g transform="translate(-960 -374)"><use fill="#fff" xlink:href="#lu41b"/></g><g transform="translate(-960 -374)"><use fill="#db0711" xlink:href="#lu41c"/></g><g transform="translate(-960 -374)"><use fill="#db0711" xlink:href="#lu41d"/></g><g transform="translate(-960 -374)"><use fill="#db0711" xlink:href="#lu41e"/></g><g transform="translate(-960 -374)"><use fill="#db0711" xlink:href="#lu41f"/></g><g transform="translate(-960 -374)"><use fill="#db0711" xlink:href="#lu41g"/></g><g transform="translate(-960 -374)"><use fill="#db0711" xlink:href="#lu41h"/></g><g transform="translate(-960 -374)"><use fill="#db0711" xlink:href="#lu41i"/></g><g transform="translate(-960 -374)"><use fill="#db0711" xlink:href="#lu41j"/></g><g transform="translate(-960 -374)"><use fill="#db0711" xlink:href="#lu41k"/></g><g transform="translate(-960 -374)"><use fill="#db0711" xlink:href="#lu41l"/></g><g transform="translate(-960 -374)"><use fill="#db0711" xlink:href="#lu41m"/></g><g transform="translate(-960 -374)"><use fill="#db0711" xlink:href="#lu41n"/></g><g transform="translate(-960 -374)"><use fill="#fff" xlink:href="#lu41o"/></g><g transform="translate(-960 -374)"><use fill="#fff" xlink:href="#lu41p"/></g><g transform="translate(-960 -374)"><use fill="#fff" xlink:href="#lu41q"/></g><g transform="translate(-960 -374)"><use fill="#fff" xlink:href="#lu41r"/></g><g transform="translate(-960 -374)"><use fill="#fff" xlink:href="#lu41s"/></g><g transform="translate(-960 -374)"><use fill="#fff" xlink:href="#lu41t"/></g><g transform="translate(-960 -374)"><use fill="#fff" xlink:href="#lu41u"/></g><g transform="translate(-960 -374)"><use fill="#fff" xlink:href="#lu41v"/></g><g transform="translate(-960 -374)"><use fill="#fff" xlink:href="#lu41w"/></g><g transform="translate(-960 -374)"><use fill="#fff" xlink:href="#lu41x"/></g><g transform="translate(-960 -374)"><use fill="#fff" xlink:href="#lu41y"/></g><g transform="translate(-960 -374)"><use fill="#fff" xlink:href="#lu41z"/></g><g transform="translate(-960 -374)"><use fill="#fff" xlink:href="#lu41A"/></g><g transform="translate(-960 -374)"><use fill="#fff" xlink:href="#lu41B"/></g><g transform="translate(-960 -374)"><use fill="#fff" xlink:href="#lu41C"/></g><g transform="translate(-960 -374)"><use fill="#fff" xlink:href="#lu41D"/></g><g transform="translate(-960 -374)"><use fill="#fff" xlink:href="#lu41E"/></g></g></svg>