<svg xmlns="http://www.w3.org/2000/svg" xmlns:xlink="http://www.w3.org/1999/xlink" width="128" height="109"
     viewBox="0 0 128 109">
    <defs>
        <path id="gy7ma" d="M194.96 50.481h-44.513V73.52h44.512L218 62.001z"/>
        <path id="gy7mb" d="M186.424 46.212L154.004 30l-32.43 16.212z"/>
        <path id="gy7mc" d="M144.89 77.787V50.482h-31.85L90 62l64.005 32 32.419-16.214z"/>
        <path id="gy7md" d="M94.857 115.942H90v-5.302h15.9v5.302h-4.86v15.833h-6.183z"/>
        <path id="gy7me" d="M107.475 110.64h6.183v15.838h6.628v5.296h-12.81z"/>
        <path id="gy7mf"
              d="M136.901 133.004c.03 1.201 1.197 1.864 2.364 1.864 1.42 0 3.156-.286 3.156-3.534v-1.2c-1.545 1.39-2.997 1.64-4.386 1.64-4.638 0-7.95-3.185-7.95-8.23 0-5.079 3.597-7.573 7.131-7.573 1.545 0 3.786.348 5.205 2.115v-1.548h5.298v14.796c0 4.038-2.523 7.51-8.454 7.51-5.205 0-7.824-2.528-8.328-5.84zm5.74-9.178c0-2.803-2.239-3.437-3.439-3.437-1.167 0-3.405.634-3.405 3.437 0 2.46 1.764 3.533 3.405 3.533 1.674 0 3.438-1.074 3.438-3.533z"/>
        <path id="gy7mg"
              d="M150.05 116.538h5.3v1.99c.154-.223.314-.412.47-.6a5.307 5.307 0 0 1 3.85-1.735c.41 0 1.232.093 1.421.126v4.86c-.507-.219-.885-.253-1.422-.253-4.039 0-4.102 3.848-4.102 4.351v6.497h-5.518z"/>
        <path id="gy7mh"
              d="M188.191 116.538v8.328c0 .978.063 2.934 2.43 2.934s2.43-1.956 2.43-2.934v-8.328h5.52v8.202c0 1.767-.189 7.601-7.95 7.601-7.762 0-7.95-5.834-7.95-7.6v-8.203z"/>
        <path id="gy7mi"
              d="M205.886 116.538v1.864c1.356-1.675 2.808-2.43 5.016-2.43 4.257 0 7.098 3.282 7.098 8.17 0 4.481-2.715 8.2-7.098 8.2-1.8 0-3.408-.597-4.797-2.112v8.168h-5.521v-21.86zm6.402 7.603c0-2.207-1.356-3.626-3.312-3.626-2.334 0-3.312 1.83-3.312 3.626 0 1.83.978 3.66 3.312 3.66 1.956 0 3.312-1.42 3.312-3.66z"/>
        <path id="gy7mj"
              d="M181.438 123.986c0-5.503-4.46-9.96-9.958-9.96a9.957 9.957 0 0 0-9.96 9.96c0 5.496 4.457 9.955 9.96 9.955 5.498 0 9.958-4.459 9.958-9.956z"/>
    </defs>
    <g>
        <g transform="translate(-90 -30)">
            <use fill="#005ca8" xlink:href="#gy7ma"/>
        </g>
        <g transform="translate(-90 -30)">
            <use fill="#005ca8" xlink:href="#gy7mb"/>
        </g>
        <g transform="translate(-90 -30)">
            <use fill="#ffcb00" xlink:href="#gy7mc"/>
        </g>
        <g transform="translate(-90 -30)">
            <use fill="#1a1a18" xlink:href="#gy7md"/>
        </g>
        <g transform="translate(-90 -30)">
            <use fill="#1a1a18" xlink:href="#gy7me"/>
        </g>
        <g transform="translate(-90 -30)">
            <use fill="#1a1a18" xlink:href="#gy7mf"/>
        </g>
        <g transform="translate(-90 -30)">
            <use fill="#1a1a18" xlink:href="#gy7mg"/>
        </g>
        <g transform="translate(-90 -30)">
            <use fill="#1a1a18" xlink:href="#gy7mh"/>
        </g>
        <g transform="translate(-90 -30)">
            <use fill="#1a1a18" xlink:href="#gy7mi"/>
        </g>
        <g transform="translate(-90 -30)">
            <use fill="#005ca8" xlink:href="#gy7mj"/>
        </g>
    </g>
</svg>