<svg xmlns="http://www.w3.org/2000/svg" xmlns:xlink="http://www.w3.org/1999/xlink" width="27" height="27" viewBox="0 0 27 27"><defs><path id="2efya" d="M161.699 68.823l-3.715-3.716c-.74-.737-1.965-.714-2.73.052l-1.872 1.871a19.716 19.716 0 0 1-.37-.205c-1.182-.656-2.798-1.552-4.501-3.255-1.708-1.708-2.606-3.329-3.262-4.512-.071-.124-.137-.244-.201-.36l1.255-1.254.618-.618c.766-.768.789-1.992.05-2.73l-3.716-3.716c-.737-.739-1.963-.716-2.731.051l-1.045 1.053s-.98 1.016-1.218 3.093c-.47 4.07 1.367 7.783 6.409 12.827 6.97 6.97 12.592 6.456 12.833 6.417 1.997-.32 3.086-1.226 3.086-1.226l1.062-1.039c.763-.768.786-1.992.048-2.733z"/></defs><g><g transform="translate(-137 -48)"><use fill="#fff" fill-opacity="0" stroke="#005ca8" stroke-linejoin="round" stroke-miterlimit="50" stroke-width="2.5" xlink:href="#2efya"/></g></g></svg>