<svg xmlns="http://www.w3.org/2000/svg" xmlns:xlink="http://www.w3.org/1999/xlink" width="21" height="21" viewBox="0 0 21 21"><defs><path id="u5bra" d="M587.319 699.373a1.823 1.823 0 0 1-.786 2.421l-1.576.836a.614.614 0 0 0-.319.44l-.308 1.756a1.825 1.825 0 0 1-2.06 1.497l-1.766-.25a.615.615 0 0 0-.517.168l-1.282 1.24a1.826 1.826 0 0 1-2.545 0l-1.282-1.24a.615.615 0 0 0-.518-.168l-1.765.25a1.82 1.82 0 0 1-2.059-1.497l-.309-1.756a.614.614 0 0 0-.319-.44l-1.576-.836a1.824 1.824 0 0 1-.787-2.42l.784-1.603a.619.619 0 0 0 0-.544l-.784-1.602a1.823 1.823 0 0 1 .787-2.42l1.576-.837a.614.614 0 0 0 .319-.44l.309-1.757a1.822 1.822 0 0 1 2.059-1.496l1.765.25a.618.618 0 0 0 .518-.168l1.282-1.24a1.821 1.821 0 0 1 2.545 0l1.282 1.24a.616.616 0 0 0 .517.168l1.766-.25a1.824 1.824 0 0 1 2.06 1.496l.308 1.757c.033.19.149.35.319.44l1.576.836a1.823 1.823 0 0 1 .786 2.421l-.783 1.602a.619.619 0 0 0 0 .544zm-1.354 1.351a.617.617 0 0 0 .266-.819l-.783-1.602a1.818 1.818 0 0 1 0-1.608l.783-1.602a.617.617 0 0 0-.266-.819l-1.575-.836a1.822 1.822 0 0 1-.946-1.3l-.308-1.757a.617.617 0 0 0-.697-.507l-1.765.25a1.816 1.816 0 0 1-1.529-.497l-1.282-1.24a.618.618 0 0 0-.861 0l-1.282 1.24a1.815 1.815 0 0 1-1.529.497l-1.766-.25a.616.616 0 0 0-.696.507l-.309 1.756a1.818 1.818 0 0 1-.945 1.301l-1.575.836a.616.616 0 0 0-.266.82l.783 1.601c.25.511.25 1.097 0 1.608l-.783 1.602a.616.616 0 0 0 .266.82l1.575.835c.503.266.847.74.945 1.301l.309 1.756a.615.615 0 0 0 .696.506l1.766-.249a1.816 1.816 0 0 1 1.529.496l1.282 1.241c.241.233.62.233.861 0l1.282-1.24a1.818 1.818 0 0 1 1.529-.497l1.766.25a.615.615 0 0 0 .696-.507l.308-1.756a1.818 1.818 0 0 1 .946-1.3zm-4.108-7.65a.604.604 0 0 1 0 .856l-7.993 7.994a.603.603 0 0 1-.857 0 .606.606 0 0 1 0-.856l7.994-7.994a.606.606 0 0 1 .856 0zm-6.847 3.415a2.223 2.223 0 0 1-2.22-2.22c0-1.224.996-2.22 2.22-2.22 1.224 0 2.22.996 2.22 2.22 0 1.224-.996 2.22-2.22 2.22zm0-3.23c-.556 0-1.009.454-1.009 1.01s.453 1.01 1.009 1.01c.556 0 1.01-.454 1.01-1.01s-.454-1.01-1.01-1.01zm4.845 5.25c1.224 0 2.22.995 2.22 2.22 0 1.224-.996 2.22-2.22 2.22a2.223 2.223 0 0 1-2.221-2.22c0-1.225.996-2.22 2.221-2.22zm0 3.23a1.01 1.01 0 0 0 0-2.02c-.557 0-1.01.453-1.01 1.01a1.01 1.01 0 0 0 1.01 1.01z"/></defs><g><g transform="translate(-567 -687)"><use fill="#ff2d00" xlink:href="#u5bra"/></g></g></svg>