<svg xmlns="http://www.w3.org/2000/svg" xmlns:xlink="http://www.w3.org/1999/xlink" width="18" height="19" viewBox="0 0 18 19"><defs><path id="6ugza" d="M1167.35 283.258l1.362-1.361-5.562-5.562-1.361 1.36z"/><path id="6ugzb" d="M1158.532 279.7a7.2 7.2 0 0 0 5.108-2.114c2.817-2.816 2.817-7.399 0-10.216-2.818-2.818-7.399-2.816-10.217 0-2.817 2.817-2.817 7.4 0 10.216a7.2 7.2 0 0 0 5.11 2.113zm0-12.519a5.28 5.28 0 0 1 3.747 1.55 5.308 5.308 0 0 1 0 7.495 5.305 5.305 0 0 1-7.495 0 5.308 5.308 0 0 1 0-7.495 5.279 5.279 0 0 1 3.747-1.55z"/></defs><g><g transform="translate(-1151 -265)"><use xlink:href="#6ugza"/></g><g transform="translate(-1151 -265)"><use xlink:href="#6ugzb"/></g></g></svg>