<svg xmlns="http://www.w3.org/2000/svg" xmlns:xlink="http://www.w3.org/1999/xlink" width="25" height="17" viewBox="0 0 25 17"><defs><path id="22uea" d="M229.121 1262.696a3.004 3.004 0 0 0-2.114-2.115c-1.879-.514-9.39-.514-9.39-.514s-7.513 0-9.39.494a3.068 3.068 0 0 0-2.116 2.135c-.495 1.878-.495 5.773-.495 5.773s0 3.914.495 5.773a3.005 3.005 0 0 0 2.115 2.115c1.897.514 9.39.514 9.39.514s7.512 0 9.391-.494a3.008 3.008 0 0 0 2.115-2.116c.494-1.878.494-5.772.494-5.772s.02-3.915-.495-5.793zm-13.897 9.371v-7.196l6.247 3.598z"/></defs><g><g transform="translate(-205 -1260)"><use fill="#fff" xlink:href="#22uea"/></g></g></svg>